<svg id="Layer_1" data-name="Layer 1" xmlns="http://www.w3.org/2000/svg" viewBox="0 0 593.7 387.01"><path d="M15.56,104.17H44.79v167H15.56Z" transform="translate(-0.83 -104.17)" style="fill:#fff"/><path d="M76.82,150.24h25.26V168l.46.47a44.94,44.94,0,0,1,15.9-15.79A42.47,42.47,0,0,1,140.19,147q19.88,0,31.34,10.28T183,188.12v83H156.33v-76q-.48-14.26-6.08-20.7T132.71,168a28.9,28.9,0,0,0-12.16,2.46,26.13,26.13,0,0,0-9.12,6.78,31.83,31.83,0,0,0-5.85,10.17,36.39,36.39,0,0,0-2.1,12.39v71.32H76.82Z" transform="translate(-0.83 -104.17)" style="fill:#fff"/><path d="M324.92,271.13H299.67V254.76h-.47a31.68,31.68,0,0,1-15.67,15.09,53.09,53.09,0,0,1-21.75,4.56q-14.26,0-24.9-5a49.58,49.58,0,0,1-17.65-13.68,58.56,58.56,0,0,1-10.53-20.46,89,89,0,0,1-3.5-25.37q0-16.37,4.44-28.3a56.69,56.69,0,0,1,11.81-19.64,45.75,45.75,0,0,1,16.83-11.34,53.54,53.54,0,0,1,19.3-3.62A64.6,64.6,0,0,1,269,148a50.42,50.42,0,0,1,11.23,3.39,44.67,44.67,0,0,1,9.94,6,33.1,33.1,0,0,1,7.6,8.54h.46V104.17h26.66ZM231.85,212a59.16,59.16,0,0,0,2,15.2,41.54,41.54,0,0,0,6.08,13.33,30.76,30.76,0,0,0,10.41,9.35,30.3,30.3,0,0,0,15,3.51,29.88,29.88,0,0,0,15.32-3.74,31.82,31.82,0,0,0,10.52-9.82,44.41,44.41,0,0,0,6.08-13.68,61.4,61.4,0,0,0,2-15.55q0-20.12-9-31.33T265.76,168q-9.36,0-15.78,3.86a32.54,32.54,0,0,0-10.53,10,41.83,41.83,0,0,0-5.84,14A73.16,73.16,0,0,0,231.85,212Z" transform="translate(-0.83 -104.17)" style="fill:#fff"/><path d="M374.72,217.58a46.66,46.66,0,0,0,2,13.57,33.3,33.3,0,0,0,6,11.45,28.65,28.65,0,0,0,10.06,7.84,33.13,33.13,0,0,0,14.5,2.92q11.68,0,18.82-5t10.64-15.08H462a50.11,50.11,0,0,1-19.65,30.52,53.59,53.59,0,0,1-16.25,8,65.47,65.47,0,0,1-18.82,2.69A64,64,0,0,1,382,269.73a52.15,52.15,0,0,1-18.59-13.1,55.55,55.55,0,0,1-11.45-20.11,81.41,81.41,0,0,1-3.86-25.72,72.67,72.67,0,0,1,4.09-24.43A62.38,62.38,0,0,1,363.85,166,54.86,54.86,0,0,1,406.53,147a54.12,54.12,0,0,1,25.6,6A56.21,56.21,0,0,1,451,168.71a63.9,63.9,0,0,1,10.88,22.57,69.18,69.18,0,0,1,1.75,26.3Zm62.2-17.53a43.31,43.31,0,0,0-2.68-12.16,32.53,32.53,0,0,0-6.08-10.17,30.14,30.14,0,0,0-9.36-7A27.56,27.56,0,0,0,406.53,168a32,32,0,0,0-12.75,2.46,29,29,0,0,0-9.82,6.78,33.48,33.48,0,0,0-6.55,10.17,35.76,35.76,0,0,0-2.69,12.63Z" transform="translate(-0.83 -104.17)" style="fill:#fff"/><path d="M516.43,207.53l-41.86-57.29h32.27l25.25,37.18,26.43-37.18h30.87l-41.16,55.89,46.3,65h-32l-30.63-44.66-29.7,44.66H470.83Z" transform="translate(-0.83 -104.17)" style="fill:#fff"/><path d="M223.08,321,278.5,467.33,336,321h23.38v167h-15.9V343.63H343L286,487.91H271L216.07,343.63h-.47V487.91H199.7V321Z" transform="translate(-0.83 -104.17)" style="fill:#fff"/><path d="M404.31,321v23.62H389.57V321Zm0,46.3V487.91H389.57V367.25Z" transform="translate(-0.83 -104.17)" style="fill:#fff"/><path d="M506.49,383.85q-8.19-7.71-22.91-7.71a37.27,37.27,0,0,0-18.48,4.44,40.58,40.58,0,0,0-13.21,11.69,53,53,0,0,0-7.95,16.49,67.18,67.18,0,0,0,0,37.64,52.9,52.9,0,0,0,7.95,16.49,40.58,40.58,0,0,0,13.21,11.69A37.17,37.17,0,0,0,483.58,479a32.6,32.6,0,0,0,12.86-2.58,34.49,34.49,0,0,0,10.75-7.13,38.11,38.11,0,0,0,7.72-10.87,40.39,40.39,0,0,0,3.74-13.8h14.73q-3,22-16.13,34.26t-33.67,12.27a56.59,56.59,0,0,1-24.44-5,51.92,51.92,0,0,1-17.89-13.68,59.69,59.69,0,0,1-11-20.23,83.23,83.23,0,0,1,0-49.34,59.64,59.64,0,0,1,11-20.22,53.23,53.23,0,0,1,17.89-13.8,55.47,55.47,0,0,1,24.44-5.15q19.4,0,32.85,10.29t16,31.1H517.72Q514.68,391.57,506.49,383.85Z" transform="translate(-0.83 -104.17)" style="fill:#fff"/><path d="M103.42,391.77a15,15,0,1,0,14.43,19h88.46v-8H117.85A15,15,0,0,0,103.42,391.77Z" transform="translate(-0.83 -104.17)" style="fill:#fff"/><path d="M142,374V333.65H114.31a15,15,0,1,0,0,8h19.76V374H30.22a15,15,0,1,0,0,8H206.31v-8Z" transform="translate(-0.83 -104.17)" style="fill:#fff"/><path d="M35.72,420.8a15,15,0,1,0,14.42,19H165.93v32.36H94.39a15,15,0,1,0,0,8H173.9V439.76h32.41v-8H50.14A15,15,0,0,0,35.72,420.8Z" transform="translate(-0.83 -104.17)" style="fill:#fff"/></svg>